<svg height="512" viewBox="0 0 60 60" width="512" xmlns="http://www.w3.org/2000/svg"><g id="014---Queen" fill="none"><g id="Layer_3" transform="translate(1 1)"><path id="Shape" d="m38 42.19v6.81l-.01.01-.06.06c-2.2940416 2.5040196-5.534011 3.9298374-8.93 3.9298374s-6.6359584-1.4258178-8.93-3.9298374l-.06-.06-.01-.01v-6.81c.2623761-.1421453.5102224-.3096089.74-.5l.06-.06c2.1 2.38 4.85 4.37 8.2 4.37s6.1-1.99 8.2-4.37l.06.06c.2297776.1903911.4776239.3578547.74.5z" fill="#ffdfb1"/><path id="Shape" d="m37.26 41.69-.06-.06c-.6688538.7600212-1.4051976 1.4578743-2.2 2.085v5.285l-.01.01-.06.06c-1.9563759 2.1002319-4.5838814 3.4525308-7.43 3.824 3.8894202.4776578 7.7710678-.9454889 10.43-3.824l.06-.06.01-.01v-6.81c-.2623761-.1421453-.5102224-.3096089-.74-.5z" fill="#dec39b"/><path id="Shape" d="m29 58h-28c-.55228475 0-1-.4477153-1-1v-.73c-.00038801-1.9010745 1.33733498-3.5397851 3.2-3.92l9.6-1.91c1.66 2.54 6.22 7.56 16.2 7.56z" fill="#f34335"/><path id="Shape" d="m58 56.27v.73c0 .5522847-.4477153 1-1 1h-28c9.98 0 14.54-5.02 16.2-7.56l9.6 1.91c1.862665.3802149 3.200388 2.0189255 3.2 3.92z" fill="#f34335"/><path id="Shape" d="m54.8 52.35-9.6-1.91c-.108.165-.229.341-.362.525l6.962 1.385c1.862665.3802149 3.200388 2.0189255 3.2 3.92v.73c0 .5522847-.4477153 1-1 1h3c.5522847 0 1-.4477153 1-1v-.73c.000388-1.9010745-1.337335-3.5397851-3.2-3.92z" fill="#c71e1e"/><path id="Shape" d="m45.2 50.44c-1.66 2.54-6.22 7.56-16.2 7.56s-14.54-5.02-16.2-7.56l7.2-1.44.01.01.06.06c2.2940416 2.5040196 5.534011 3.9298374 8.93 3.9298374s6.6359584-1.4258178 8.93-3.9298374l.06-.06.01-.01z" fill="#ffdb00"/><path id="Shape" d="m16.36 34.51c1.127845 2.5755863 2.6234244 4.973903 4.44 7.12l-.06.06c-.2297776.1903911-.4776239.3578547-.74.5-.9088291.5351884-1.9453097.8150382-3 .81-3.0302682-.0052637-5.5838015-2.2631698-5.96-5.27-.0511809-.4060981-.3579814-.7330829-.76-.81-1.27-.24-3.78-1.18-3.78-4.92-.00293101-1.7923115.95502147-3.4486915 2.51-4.34.36235782-.2116196.55405331-.6269599.48-1.04-.3-1.53-.49-4.91 3.51-6.07v.45c.0032948 1.1032019.8967981 1.9967052 2 2h6.55c-1.4503021 1.6384721-3.1433169 3.0448211-5.02 4.17-.3250636.1883617-.5265565.5343212-.53.91v4.72c-.001218.5889359.1214364 1.1715445.36 1.71z" fill="#9f522d"/><path id="Shape" d="m51.5 32c0 3.74-2.51 4.68-3.78 4.92-.4020186.0769171-.7088191.4039019-.76.81-.3761985 3.0068302-2.9297318 5.2647363-5.96 5.27-1.0546903.0050382-2.0911709-.2748116-3-.81-.2623761-.1421453-.5102224-.3096089-.74-.5l-.06-.06c1.8165756-2.146097 3.312155-4.5444137 4.44-7.12.2385636-.5384555.361218-1.1210641.36-1.71v-4.72c-.0034435-.3756788-.2049364-.7216383-.53-.91-1.8766831-1.1251789-3.5696979-2.5315279-5.02-4.17h6.55c1.1032019-.0032948 1.9967052-.8967981 2-2v-.45c4 1.16 3.81 4.54 3.51 6.07-.0740533.4130401.1176422.8283804.48 1.04 1.5549785.8913085 2.512931 2.5476885 2.51 4.34z" fill="#9f522d"/><path id="Shape" d="m48.99 27.66c-.3623578-.2116196-.5540533-.6269599-.48-1.04.3-1.53.49-4.91-3.51-6.07v.45c-.0005655.4112738-.1291862.812165-.368 1.147.9419737 1.2868177 1.2636455 2.9255854.878 4.473-.0740533.4130401.1176422.8283804.48 1.04 1.5549785.8913085 2.512931 2.5476885 2.51 4.34 0 3.74-2.51 4.68-3.78 4.92-.4020186.0769171-.7088191.4039019-.76.81-.3138468 2.454545-2.0998265 4.4659551-4.5 5.068 1.6772135.4468146 3.465738.1454176 4.9038894-.8263893 1.4381515-.9718069 2.3849933-2.5187881 2.5961106-4.2416107.0511809-.4060981.3579814-.7330829.76-.81 1.27-.24 3.78-1.18 3.78-4.92.002931-1.7923115-.9550215-3.4486915-2.51-4.34z" fill="#783e22"/><path id="Shape" d="m42 28.08v4.72c.001218.5889359-.1214364 1.1715445-.36 1.71-1.127845 2.5755863-2.6234244 4.973903-4.44 7.12-2.1 2.38-4.85 4.37-8.2 4.37s-6.1-1.99-8.2-4.37c-1.8165756-2.146097-3.312155-4.5444137-4.44-7.12-.2385636-.5384555-.361218-1.1210641-.36-1.71v-4.72c.0034435-.3756788.2049364-.7216383.53-.91 1.8766831-1.1251789 3.5696979-2.5315279 5.02-4.17h14.9c1.4503021 1.6384721 3.1433169 3.0448211 5.02 4.17.3250636.1883617.5265565.5343212.53.91z" fill="#ffdfb1"/><path id="Shape" d="m41.47 27.17c-1.8766831-1.1251789-3.5696979-2.5315279-5.02-4.17h-3c1.4503021 1.6384721 3.1433169 3.0448211 5.02 4.17.3250636.1883617.5265565.5343212.53.91v4.72c.001218.5889359-.1214364 1.1715445-.36 1.71-1.127845 2.5755863-2.6234244 4.973903-4.44 7.12-1.6986175 2.1162912-4.0576149 3.6021075-6.7 4.22.4944868.0949033.9965122.1451059 1.5.15 3.35 0 6.1-1.99 8.2-4.37 1.8165756-2.146097 3.312155-4.5444137 4.44-7.12.2385636-.5384555.361218-1.1210641.36-1.71v-4.72c-.0034435-.3756788-.2049364-.7216383-.53-.91z" fill="#dec39b"/><rect id="Rectangle-path" fill="#ff9701" height="6" rx="2" width="32" x="13" y="17"/><path id="Shape" d="m43 1.67v15.33h-28v-15.33c.0004965-.39250783.2305711-.74843039.5882654-.91003926s.776857-.09901643 1.0717346.16003926l2.91 2.54 2.67 2.34c.2008126.17672828.4640608.26563227.7309043.24684047.2668434-.01879179.5150335-.14371256.6890957-.34684047l2.34-2.73 2.24-2.62c.191785-.21911471.4688081-.34479327.76-.34479327s.568215.12567856.76.34479327l2.24 2.62 2.34 2.73c.1740622.20312791.4222523.32804868.6890957.34684047.2668435.0187918.5300917-.07011219.7309043-.24684047l2.67-2.34 2.91-2.54c.2948776-.25905569.7140403-.32164813 1.0717346-.16003926s.5877689.51753143.5882654.91003926z" fill="#ffdb00"/><path id="Shape" d="m26 2.97-2.34 2.73c-.1740622.20312791-.4222523.32804868-.6890957.34684047-.2668435.0187918-.5300917-.07011219-.7309043-.24684047l-2.67-2.34 2.67-3.11c.1899882-.22216639.4676758-.35007693.76-.35007693s.5700118.12791054.76.35007693z" fill="#ff9701"/><path id="Shape" d="m38.43 3.46-2.67 2.34c-.2008126.17672828-.4640608.26563227-.7309043.24684047-.2668434-.01879179-.5150335-.14371256-.6890957-.34684047l-2.34-2.73 2.24-2.62c.1899882-.22216639.4676758-.35007693.76-.35007693s.5700118.12791054.76.35007693z" fill="#ff9701"/><circle id="Oval" cx="29" cy="10" fill="#ee314c" r="3"/></g><g id="Layer_11" fill="#000"><path id="Shape" d="m56 52.37-16-3.19v-4.493c1.9592593.6041059 4.0856005.3072241 5.8044668-.8104252 1.7188662-1.1176493 2.852848-2.9407101 3.0955332-4.9765748 5.587-1.049 6.092-8.529 1.6-11.1.63-3.279-.682-5.811-3.5-6.943v-.857c-.0052514-1.2667854-.8056491-2.3937454-2-2.816v-14.515c-.0020205-.78381688-.461719-1.49420584-1.1759074-1.81717317s-1.5512074-.19897457-2.1410926.31717317l-2.151 1.877-2.011-2.341c-.3894038-.42787613-.940854-.67218389-1.5193973-.67313513-.5785434-.00095124-1.130794.24154182-1.5216027.66813513l-1.48 1.731-1.481-1.731c-.3909917-.42456575-.9418254-.66612045-1.519-.66612045s-1.1280083.2415547-1.519.66612045l-1.481 1.731-1.479-1.726c-.3902455-.4266219-.9418151-.66960437-1.52-.66960437s-1.1297545.24298247-1.52.66960437l-2.013 2.341-2.151-1.881c-.5904305-.51662057-1.4283873-.640322-2.1429095-.31634206-.7145223.32397993-1.173635 1.03580091-1.1740905 1.82034206v14.515c-1.1943509.4222546-1.9947486 1.5492146-2 2.816v.863c-2.815 1.137-4.126 3.663-3.483 6.93-4.736 2.717-3.689 10.287 1.535 11.059.2471518 2.0461886 1.386987 3.8781668 3.113411 5.0039697 1.726424 1.1258028 3.862496 1.4300472 5.834589.8310303v4.493l-16 3.19c-2.32451065.4815778-3.99353865 2.5261371-4 4.9v.73c0 1.1045695.8954305 2 2 2h56c1.1045695 0 2-.8954305 2-2v-.73c-.0064613-2.3738629-1.6754893-4.4184222-4-4.9zm-26-6.37c-6.418 0-10.595-8.337-11.722-10.893-.356-.807-.264-.982-.264-6.068 1.8428345-1.0999561 3.5171219-2.4603357 4.971-4.039h14.03c1.4608654 1.5878012 3.1391892 2.960761 4.985 4.078 0 4.531.12 5.129-.278 6.03-1.122 2.555-5.304 10.892-11.722 10.892zm8-1.736v5.328c-2.0911167 2.1785509-4.9802561 3.4100729-8 3.4100729s-5.9088833-1.231522-8-3.4100729v-5.328c5.04 4.98 10.941 4.998 16 0zm8.824-21.29c1.531.845 2.117 2.331 1.709 4.455-.1631738.8321601.2205855 1.6760288.955 2.1 1.2423957.7146762 2.0093093 2.0377164 2.012 3.471 0 2.793-1.614 3.683-2.968 3.937-.8330936.1536118-1.4690987.831774-1.569 1.673-.1902134 1.5675348-1.1119875 2.9522034-2.4847402 3.7325216-1.3727527.7803181-3.0340709.8639648-4.4782598.2254784v-.582c1.4089253-1.8828542 2.6001765-3.9191524 3.551-6.07.572-1.294.449-1.8.449-6.838-.0013162-.735354-.3962086-1.4137296-1.035-1.778-1.1127886-.6533322-2.1520964-1.4244316-3.1-2.3h4.135c1.2765014-.0057426 2.4095713-.8186319 2.824-2.026zm-10.824-20.974 2.026 2.359-1.926 1.688-1.78-2.079zm-12 0 1.681 1.966-1.781 2.081-1.927-1.684zm-7 .667 5.581 4.883c.4014215.35219749.9270236.52923022 1.4597252.49166311s1.0282557-.28661367 1.3762748-.69166311l4.583-5.35 4.583 5.347c.3480191.40504944.8435732.654096 1.3762748.69166311s1.0583037-.13946562 1.4597252-.49166311l5.581-4.878v14.331h-26zm-2 17.333c0-.5522847.4477153-1 1-1h28c.5522847 0 1 .4477153 1 1v2c0 .5522847-.4477153 1-1 1h-28c-.5522847 0-1-.4477153-1-1zm-1.963 18.61c-.0999013-.841226-.7359064-1.5193882-1.569-1.673-1.354-.254-2.968-1.144-2.968-3.937.00233378-1.4336411.76929528-2.7571453 2.012-3.472.7341771-.4241866 1.1178555-1.2678772.955-2.1-.408-2.123.178-3.609 1.709-4.454.4144287 1.2073681 1.5474986 2.0202574 2.824 2.026h4.136c-.9474067.8761678-1.9867818 1.6473171-3.1 2.3-.6387228.3644725-1.0338565 1.0426073-1.036 1.778 0 4.716-.151 5.48.448 6.838.9516648 2.1506248 2.1432189 4.1868673 3.552 6.07v.582c-1.4442168.6380314-3.105309.5541707-4.477924-.2260692-1.372615-.7802398-2.2944574-2.1646048-2.485076-3.7319308zm-11.037 19.39v-.73c.00365825-1.4241893 1.00527956-2.6507581 2.4-2.939l8.954-1.786c1.7599646 2.3671145 4.0959434 4.2449165 6.786 5.455zm13.548-5.893 5.136-1.024c2.4514382 2.5068571 5.8097368 3.9199482 9.316 3.9199482s6.8645618-1.4130911 9.316-3.9199482l5.136 1.025c-2.004 2.392-6.324 5.892-14.452 5.892s-12.448-3.5-14.452-5.893zm42.452 5.893h-18.14c2.6915128-1.2095063 5.0289234-3.0873523 6.79-5.455l8.95 1.785c1.3946641.2890163 2.3960465 1.5157097 2.4 2.94z"/><path id="Shape" d="m30 7c-2.209139 0-4 1.790861-4 4s1.790861 4 4 4 4-1.790861 4-4c0-1.06086596-.4214274-2.07828161-1.1715729-2.82842712-.7501455-.75014552-1.7675611-1.17157288-2.8284271-1.17157288zm0 6c-1.1045695 0-2-.8954305-2-2s.8954305-2 2-2 2 .8954305 2 2-.8954305 2-2 2z"/><circle id="Oval" cx="21" cy="12" r="1"/><circle id="Oval" cx="39" cy="12" r="1"/></g></g></svg>