<?xml version="1.0" encoding="iso-8859-1"?>
<!-- Generator: Adobe Illustrator 19.0.0, SVG Export Plug-In . SVG Version: 6.00 Build 0)  -->
<svg version="1.1" id="Capa_1" xmlns="http://www.w3.org/2000/svg" xmlns:xlink="http://www.w3.org/1999/xlink" x="0px" y="0px"
	 viewBox="0 0 470 470" style="enable-background:new 0 0 470 470;" xml:space="preserve">
<g>
	<path style="fill:#E3C498;" d="M56.728,67.335l-2.271-2.271c-2.929-2.929-2.929-7.678,0-10.606c2.931-2.929,7.679-2.928,10.607,0
		l2.27,2.27l9.508-9.508L22.586,22.586l24.633,54.257L56.728,67.335z"/>
	<path style="fill:#E3C498;" d="M413.272,67.335l9.509,9.509l24.633-54.257L393.157,47.22l9.508,9.508l2.27-2.27
		c2.929-2.928,7.677-2.93,10.607,0c2.929,2.929,2.929,7.678,0,10.606L413.272,67.335z"/>
	<polygon style="fill:#CF5530;" points="125.876,307.658 147.426,311.968 158.215,301.179 136.665,296.869 	"/>
	<polygon style="fill:#CF5530;" points="311.968,322.575 301.179,311.786 296.869,333.335 307.658,344.124 	"/>
	<polygon style="fill:#DB8F63;" points="311.786,301.179 322.575,311.968 344.124,307.658 333.335,296.869 	"/>
	<polygon style="fill:#DB8F63;" points="162.342,344.124 173.131,333.335 168.821,311.786 158.032,322.575 	"/>
	<polygon style="fill:#E63A2A;" points="346.111,335.504 367.66,331.194 356.872,320.406 335.322,324.715 	"/>
	<polygon style="fill:#E63A2A;" points="145.285,335.323 134.496,346.111 138.806,367.66 149.595,356.872 	"/>
	<polygon style="fill:#6F362D;" points="123.89,335.504 134.678,324.716 113.129,320.406 102.34,331.194 	"/>
	<polygon style="fill:#6F362D;" points="335.504,346.111 324.715,335.323 320.405,356.872 331.194,367.66 	"/>
	<polygon style="fill:#E9B264;" points="380.408,343.942 358.859,348.252 425.738,415.131 447.287,410.822 	"/>
	<polygon style="fill:#E9B264;" points="126.059,380.408 121.749,358.859 54.869,425.738 59.179,447.288 	"/>
	<polygon style="fill:#F59B45;" points="111.142,348.252 89.592,343.942 22.713,410.822 44.263,415.131 	"/>
	<polygon style="fill:#F59B45;" points="348.252,358.859 343.942,380.408 410.821,447.288 415.131,425.738 	"/>
	<path style="fill:#34150C;" d="M38.037,92.904c1.018,2.24,3.068,3.839,5.489,4.279c0.446,0.081,0.895,0.121,1.34,0.121
		c1.971,0,3.885-0.778,5.304-2.197l17.165-17.165l10.606,10.606l-2.648,2.648c-2.929,2.929-2.929,7.678,0,10.606
		c1.465,1.464,3.385,2.197,5.304,2.197s3.839-0.732,5.304-2.197l2.648-2.648l10.606,10.606l-2.648,2.648
		c-2.929,2.929-2.929,7.678,0,10.606c1.465,1.464,3.385,2.197,5.304,2.197s3.839-0.732,5.304-2.197l2.648-2.648l10.606,10.606
		l-2.648,2.648c-2.929,2.929-2.929,7.678,0,10.606c1.465,1.464,3.385,2.197,5.304,2.197s3.839-0.732,5.304-2.197l2.648-2.648
		l77.505,77.506c1.465,1.465,3.384,2.197,5.304,2.197c1.919,0,3.839-0.732,5.304-2.197c2.929-2.929,2.929-7.678,0-10.606
		l-77.506-77.506l2.647-2.647c2.929-2.929,2.929-7.678,0-10.606c-2.93-2.929-7.678-2.929-10.607,0l-2.647,2.647l-10.606-10.606
		l2.648-2.648c2.929-2.929,2.929-7.678,0-10.606c-2.93-2.929-7.678-2.929-10.607,0l-2.647,2.647L99.155,88.548l2.648-2.648
		c2.929-2.929,2.929-7.678,0-10.606c-2.93-2.929-7.678-2.929-10.607,0l-2.647,2.647L77.942,67.335L95.107,50.17
		c1.739-1.74,2.516-4.222,2.075-6.643c-0.439-2.421-2.038-4.472-4.278-5.489L10.601,0.671C7.754-0.621,4.407-0.013,2.196,2.197
		c-2.209,2.21-2.817,5.558-1.525,8.404L38.037,92.904z M76.843,47.22l-9.508,9.508l-2.27-2.27c-2.929-2.928-7.677-2.929-10.607,0
		c-2.929,2.929-2.929,7.678,0,10.606l2.271,2.271l-9.509,9.509L22.586,22.586L76.843,47.22z"/>
	<path style="fill:#34150C;" d="M467.804,410.124l-79.648-79.648c-0.012-0.012-23.533-23.533-23.533-23.533
		c-0.017-0.017-23.519-23.519-23.519-23.519c-1.773-1.773-4.314-2.542-6.774-2.051l-35.291,7.058l-37.518-37.518
		c-2.929-2.929-7.677-2.93-10.607,0c-2.929,2.929-2.929,7.678,0,10.606l37.518,37.518l-7.058,35.292
		c-0.491,2.459,0.278,5.001,2.051,6.774l23.504,23.504c0.01,0.01,23.533,23.533,23.533,23.533
		c0.018,0.018,79.662,79.663,79.662,79.663c1.428,1.428,3.344,2.197,5.305,2.197c0.726,0,1.457-0.105,2.173-0.322
		c2.646-0.802,4.638-2.995,5.181-5.708l5.097-25.485l18.958,18.958c1.465,1.465,3.384,2.197,5.304,2.197
		c1.919,0,3.839-0.732,5.304-2.197c2.929-2.929,2.929-7.678,0-10.606l-18.958-18.958l25.485-5.097
		c2.712-0.542,4.906-2.534,5.707-5.181C470.48,414.953,469.759,412.08,467.804,410.124z M367.66,331.194l-21.549,4.31
		l-10.789-10.789l21.549-4.31L367.66,331.194z M324.715,335.323l10.789,10.788l-4.31,21.549l-10.789-10.789L324.715,335.323z
		 M322.575,311.968l-10.789-10.789l21.549-4.31l10.789,10.789L322.575,311.968z M301.179,311.786l10.789,10.789l-4.31,21.549
		l-10.789-10.789L301.179,311.786z M343.942,380.408l4.31-21.549l66.879,66.879l-4.31,21.55L343.942,380.408z M358.859,348.252
		l21.549-4.31l66.879,66.879l-21.55,4.31L358.859,348.252z"/>
	<path style="fill:#34150C;" d="M181.569,299.038l157.457-157.457l2.648,2.648c1.465,1.464,3.385,2.197,5.304,2.197
		s3.839-0.732,5.304-2.197c2.929-2.929,2.929-7.678,0-10.606l-2.648-2.648l10.606-10.606l2.648,2.648
		c1.465,1.464,3.385,2.197,5.304,2.197s3.839-0.732,5.304-2.197c2.929-2.929,2.929-7.678,0-10.606l-2.648-2.648l10.606-10.606
		l2.648,2.648c1.465,1.464,3.385,2.197,5.304,2.197s3.839-0.732,5.304-2.197c2.929-2.929,2.929-7.678,0-10.606l-2.648-2.648
		l10.606-10.606l17.165,17.165c1.42,1.419,3.333,2.197,5.304,2.197c0.445,0,0.894-0.04,1.34-0.121
		c2.421-0.439,4.472-2.039,5.489-4.279l37.366-82.303c1.292-2.846,0.684-6.194-1.525-8.404c-2.21-2.21-5.558-2.818-8.404-1.526
		l-82.303,37.366c-2.24,1.017-3.839,3.068-4.278,5.489c-0.44,2.421,0.336,4.903,2.075,6.643l17.165,17.165l-10.606,10.606
		l-2.647-2.647c-2.93-2.929-7.678-2.929-10.607,0c-2.929,2.929-2.929,7.678,0,10.606l2.648,2.648l-10.606,10.606l-2.647-2.647
		c-2.93-2.929-7.678-2.929-10.607,0c-2.929,2.929-2.929,7.678,0,10.606l2.648,2.648l-10.606,10.606l-2.647-2.647
		c-2.93-2.929-7.678-2.929-10.607,0c-2.929,2.929-2.929,7.678,0,10.606l2.647,2.647L170.962,288.431l-35.291-7.058
		c-2.457-0.49-5,0.278-6.774,2.051l-23.504,23.504c-0.01,0.01-23.538,23.538-23.538,23.538
		c-0.007,0.007-79.658,79.658-79.658,79.658c-1.955,1.956-2.676,4.829-1.874,7.477c0.801,2.647,2.995,4.639,5.707,5.181
		l25.485,5.097l-18.958,18.958c-2.929,2.929-2.929,7.678,0,10.606c1.465,1.464,3.385,2.197,5.304,2.197
		c1.92,0,3.839-0.732,5.304-2.197l18.958-18.958l5.097,25.485c0.543,2.712,2.534,4.906,5.181,5.708
		c0.716,0.216,1.447,0.322,2.173,0.322c1.961,0,3.877-0.77,5.305-2.197l79.644-79.645c0.018-0.018,23.541-23.541,23.541-23.541
		c0.01-0.01,23.514-23.514,23.514-23.514c1.772-1.773,2.542-4.315,2.051-6.774L181.569,299.038z M415.543,54.457
		c-2.931-2.93-7.679-2.928-10.607,0l-2.27,2.27l-9.508-9.508l54.257-24.633l-24.633,54.257l-9.509-9.509l2.271-2.271
		C418.472,62.135,418.472,57.386,415.543,54.457z M173.131,333.335l-10.789,10.789l-4.31-21.549l10.789-10.789L173.131,333.335z
		 M113.129,320.406l21.55,4.31l-10.789,10.789l-21.55-4.31L113.129,320.406z M134.496,346.111l10.789-10.788l4.31,21.549
		l-10.789,10.789L134.496,346.111z M147.426,311.968l-21.55-4.31l10.789-10.789l21.55,4.31L147.426,311.968z M89.592,343.942
		l21.55,4.31l-66.879,66.879l-21.55-4.31L89.592,343.942z M121.749,358.859l4.31,21.549l-66.88,66.88l-4.31-21.55L121.749,358.859z"
		/>
</g>
<g>
</g>
<g>
</g>
<g>
</g>
<g>
</g>
<g>
</g>
<g>
</g>
<g>
</g>
<g>
</g>
<g>
</g>
<g>
</g>
<g>
</g>
<g>
</g>
<g>
</g>
<g>
</g>
<g>
</g>
</svg>
